<svg width="114" height="19" viewBox="0 0 114 19" fill="none" xmlns="http://www.w3.org/2000/svg">
<path d="M6.804 4.342C6.192 3.928 5.472 3.838 4.77 3.838C2.286 3.838 0.27 5.566 0.27 8.338C0.27 11.11 1.998 12.802 4.77 12.802C5.868 12.802 7.02 13.36 7.02 14.584C7.02 15.808 6.03 16.492 4.77 16.492C3.51 16.492 2.448 15.736 2.448 14.584H0.27C0.27 16.978 2.196 18.544 4.77 18.544C7.344 18.544 9.216 17.032 9.216 14.584C9.216 13.45 8.856 12.388 7.38 11.65C8.838 10.984 9.252 9.436 9.252 8.338C9.252 7.366 9 6.484 8.316 5.71L9.306 4.45L7.686 3.226L6.804 4.342ZM4.77 5.836C6.03 5.836 7.074 6.808 7.074 8.338C7.074 9.868 6.03 10.804 4.77 10.804C3.492 10.804 2.448 9.886 2.448 8.338C2.448 6.79 3.492 5.836 4.77 5.836ZM17.6176 5.35C17.1136 4.468 15.9796 3.91 14.7916 3.91C12.1996 3.892 10.1656 5.494 10.1656 8.554C10.1656 11.668 12.1096 13.288 14.7376 13.27C15.7276 13.252 17.1136 12.748 17.6176 11.704L17.7256 13H19.7956V4.126H17.6896L17.6176 5.35ZM14.9896 5.872C18.4456 5.872 18.4456 11.254 14.9896 11.254C13.5316 11.254 12.3616 10.246 12.3616 8.554C12.3616 6.862 13.5316 5.872 14.9896 5.872ZM29.7555 13V8.248C29.7555 7.078 30.4935 6.052 31.6815 6.052C32.8695 6.052 33.3555 7.042 33.3555 8.212V13H35.5515V8.212C35.5515 5.548 34.3095 4 31.7895 4C30.6375 4 29.6115 4.36 28.8195 5.62C28.3155 4.396 27.2535 3.964 26.1915 3.964C25.3455 3.964 24.3195 4.288 23.8515 5.188L23.6895 4.108H21.6555V13H23.8515V8.248C23.8515 7.078 24.5535 6.016 25.7415 6.016C26.9475 6.016 27.5595 7.078 27.5595 8.248V13H29.7555ZM46.5943 9.346C46.9363 5.692 45.0823 3.856 42.1123 3.856C39.2323 3.856 37.3963 5.8 37.3963 8.5C37.3963 11.344 39.2143 13.234 42.2743 13.234C43.6243 13.234 45.1543 12.766 46.0903 11.794L44.6863 10.408C44.1823 10.93 43.1203 11.236 42.3103 11.236C40.7623 11.236 39.8083 10.444 39.6643 9.346H46.5943ZM39.7003 7.528C40.0243 6.376 40.9963 5.8 42.1843 5.8C43.4443 5.8 44.3443 6.376 44.4883 7.528H39.7003ZM58.0631 10.426C57.5231 10.966 56.8211 11.164 56.1191 11.164C54.7511 11.164 53.5991 10.264 53.5991 8.572C53.5991 7.024 54.6791 5.944 56.1551 5.944C56.7671 5.944 57.4151 6.178 57.9371 6.646L59.3231 5.188C58.3511 4.234 57.3791 3.874 56.1191 3.874C53.5451 3.874 51.4031 5.422 51.4031 8.572C51.4031 11.722 53.5451 13.27 56.1191 13.27C57.4331 13.27 58.5131 12.874 59.5391 11.866L58.0631 10.426ZM64.855 3.946C62.029 3.946 60.265 6.034 60.265 8.572C60.265 11.128 61.993 13.198 64.873 13.198C67.753 13.198 69.499 11.128 69.499 8.572C69.499 6.034 67.681 3.946 64.855 3.946ZM64.873 5.944C66.349 5.944 67.285 7.24 67.285 8.572C67.285 9.922 66.475 11.182 64.873 11.182C63.271 11.182 62.461 9.922 62.461 8.572C62.461 7.24 63.289 5.944 64.873 5.944ZM79.7449 13V8.338C79.7449 5.548 78.0709 3.982 75.9829 3.982C74.8669 3.982 73.9669 4.432 73.0669 5.314L72.9229 4.108H70.9609V13H73.1389V8.464C73.1389 7.114 74.0569 5.98 75.4069 5.98C76.8109 5.98 77.5489 7.006 77.5489 8.356V13H79.7449ZM88.6521 5.044C87.6261 4.144 86.5821 3.874 85.1961 3.874C83.5761 3.874 81.4521 4.594 81.4521 6.646C81.4521 8.662 83.4501 9.274 85.1241 9.4C86.3841 9.472 86.8881 9.724 86.8881 10.336C86.8881 10.984 86.1141 11.416 85.2861 11.398C84.2961 11.38 82.8561 10.858 82.2261 10.156L81.1461 11.722C82.4421 13.072 83.8461 13.306 85.2501 13.306C87.7881 13.306 89.0661 11.956 89.0661 10.39C89.0661 8.032 86.9421 7.654 85.2681 7.546C84.1341 7.474 83.6121 7.15 83.6121 6.574C83.6121 6.016 84.1881 5.692 85.2321 5.692C86.0781 5.692 86.7981 5.89 87.4281 6.484L88.6521 5.044ZM92.6699 4.09V13H90.4739V4.09H92.6699ZM90.2759 1.624C90.2759 3.334 92.8679 3.334 92.8679 1.624C92.8679 -0.086001 90.2759 -0.086001 90.2759 1.624ZM100.742 4.342C100.13 3.928 99.4095 3.838 98.7075 3.838C96.2235 3.838 94.2075 5.566 94.2075 8.338C94.2075 11.11 95.9355 12.802 98.7075 12.802C99.8055 12.802 100.958 13.36 100.958 14.584C100.958 15.808 99.9675 16.492 98.7075 16.492C97.4475 16.492 96.3855 15.736 96.3855 14.584H94.2075C94.2075 16.978 96.1335 18.544 98.7075 18.544C101.282 18.544 103.154 17.032 103.154 14.584C103.154 13.45 102.794 12.388 101.318 11.65C102.776 10.984 103.189 9.436 103.189 8.338C103.189 7.366 102.938 6.484 102.254 5.71L103.244 4.45L101.624 3.226L100.742 4.342ZM98.7075 5.836C99.9675 5.836 101.012 6.808 101.012 8.338C101.012 9.868 99.9675 10.804 98.7075 10.804C97.4295 10.804 96.3855 9.886 96.3855 8.338C96.3855 6.79 97.4295 5.836 98.7075 5.836ZM113.319 13V8.338C113.319 5.548 111.645 3.982 109.557 3.982C108.441 3.982 107.541 4.432 106.641 5.314L106.497 4.108H104.535V13H106.713V8.464C106.713 7.114 107.631 5.98 108.981 5.98C110.385 5.98 111.123 7.006 111.123 8.356V13H113.319Z" fill="black"/>
</svg>
